<mxfile host="Electron" modified="2024-04-29T19:32:47.392Z" agent="Mozilla/5.0 (Windows NT 10.0; Win64; x64) AppleWebKit/537.36 (KHTML, like Gecko) draw.io/22.1.16 Chrome/120.0.6099.109 Electron/28.1.0 Safari/537.36" etag="gLRrSMJRhMr_B4UDo0Zk" version="22.1.16" type="device">
  <diagram id="C5RBs43oDa-KdzZeNtuy" name="Flugrama FEPAS - Autorizador">
    <mxGraphModel dx="2000" dy="167" grid="0" gridSize="10" guides="1" tooltips="1" connect="1" arrows="1" fold="1" page="0" pageScale="1" pageWidth="827" pageHeight="1169" math="0" shadow="0">
      <root>
        <mxCell id="WIyWlLk6GJQsqaUBKTNV-0" />
        <mxCell id="WIyWlLk6GJQsqaUBKTNV-1" parent="WIyWlLk6GJQsqaUBKTNV-0" />
        <mxCell id="ReUIh_fRYPP_b07d6L2p-0" value="" style="whiteSpace=wrap;html=1;aspect=fixed;fillColor=none;" vertex="1" parent="WIyWlLk6GJQsqaUBKTNV-1">
          <mxGeometry x="-6" y="1151" width="1488" height="1488" as="geometry" />
        </mxCell>
        <mxCell id="K_FW4SWD4WvgckGDn0Mu-0" value="&lt;div style=&quot;font-size: 20px;&quot;&gt;&lt;b style=&quot;&quot;&gt;&lt;font style=&quot;font-size: 20px;&quot;&gt;Logon - Carga de Tabelas&lt;br&gt;&lt;/font&gt;&lt;/b&gt;&lt;/div&gt;&lt;div style=&quot;text-align: justify; font-size: 20px;&quot;&gt;&lt;br&gt;&lt;/div&gt;&lt;div style=&quot;text-align: justify; font-size: 18px;&quot;&gt;&lt;br&gt;&lt;/div&gt;&lt;div style=&quot;text-align: justify; font-size: 16px;&quot;&gt;&lt;ul style=&quot;&quot;&gt;&lt;li style=&quot;&quot;&gt;&lt;font style=&quot;font-size: 16px;&quot;&gt;É um processo utilizado para validar um estabelecimento comercial com o Autorizador.&lt;/font&gt;&lt;/li&gt;&lt;li style=&quot;&quot;&gt;&lt;font style=&quot;font-size: 16px;&quot;&gt;Ele é utilizado para indicar se uma carga de tabelas deve ser iniciada, o que só deve ocorrer se a versão da tabela no Autorizador for diferente da versão na &lt;b style=&quot;&quot;&gt;FEPAS&amp;nbsp;&lt;/b&gt;&lt;span style=&quot;&quot;&gt;(Front-End Payment Authorization System).&lt;/span&gt;&lt;/font&gt;&lt;/li&gt;&lt;li style=&quot;&quot;&gt;&lt;font style=&quot;font-size: 16px;&quot;&gt;O Logon deve ser realizado pelo menos uma vez ao dia ou em situações específicas, como quando o &lt;b&gt;TEF &lt;/b&gt;(Transferência Eletrônica de Fundos) é colocado em operação ou diariamente em um horário específico.&lt;/font&gt;&lt;/li&gt;&lt;li style=&quot;&quot;&gt;&lt;font style=&quot;font-size: 16px;&quot;&gt;A &lt;b&gt;FEPAS &lt;/b&gt;envia a versão atual das tabelas carregadas no estabelecimento comercial durante o processo de Logon.&lt;/font&gt;&lt;/li&gt;&lt;li style=&quot;&quot;&gt;&lt;font style=&quot;font-size: 16px;&quot;&gt;O Autorizador verifica esses dados e indica a necessidade de realizar uma carga de tabelas se as tabelas estiverem desatualizadas.&lt;/font&gt;&lt;/li&gt;&lt;li style=&quot;&quot;&gt;&lt;font style=&quot;font-size: 16px;&quot;&gt;Se as tabelas da &lt;b&gt;FEPAS &lt;/b&gt;estiverem desatualizadas, o processo de carga de tabelas é iniciado enviando uma mensagem 0800 com o bit 70 = 800, indicando o início do carregamento.&lt;/font&gt;&lt;/li&gt;&lt;li style=&quot;&quot;&gt;&lt;font style=&quot;font-size: 16px;&quot;&gt;O Autorizador responde à mensagem enviando informações nos bits 47, 48 e 62.&lt;/font&gt;&lt;/li&gt;&lt;/ul&gt;&lt;/div&gt;" style="text;html=1;strokeColor=none;fillColor=none;align=center;verticalAlign=top;whiteSpace=wrap;rounded=0;" vertex="1" parent="WIyWlLk6GJQsqaUBKTNV-1">
          <mxGeometry x="9" y="1170" width="1454" height="288" as="geometry" />
        </mxCell>
        <mxCell id="K_FW4SWD4WvgckGDn0Mu-1" value="FEPAS" style="rounded=1;whiteSpace=wrap;html=1;fillColor=none;" vertex="1" parent="WIyWlLk6GJQsqaUBKTNV-1">
          <mxGeometry x="39" y="1590" width="80" height="120" as="geometry" />
        </mxCell>
        <mxCell id="K_FW4SWD4WvgckGDn0Mu-2" value="Autorizador&lt;br&gt;E-ctare" style="rounded=1;whiteSpace=wrap;html=1;fillColor=none;" vertex="1" parent="WIyWlLk6GJQsqaUBKTNV-1">
          <mxGeometry x="479" y="1590" width="80" height="120" as="geometry" />
        </mxCell>
        <mxCell id="K_FW4SWD4WvgckGDn0Mu-3" value="" style="endArrow=classic;html=1;rounded=0;entryX=0;entryY=0.333;entryDx=0;entryDy=0;entryPerimeter=0;" edge="1" parent="WIyWlLk6GJQsqaUBKTNV-1" target="K_FW4SWD4WvgckGDn0Mu-2">
          <mxGeometry width="50" height="50" relative="1" as="geometry">
            <mxPoint x="119" y="1630.04" as="sourcePoint" />
            <mxPoint x="299" y="1630" as="targetPoint" />
          </mxGeometry>
        </mxCell>
        <mxCell id="K_FW4SWD4WvgckGDn0Mu-4" value="" style="endArrow=classic;html=1;rounded=0;exitX=-0.025;exitY=0.675;exitDx=0;exitDy=0;exitPerimeter=0;entryX=1.013;entryY=0.675;entryDx=0;entryDy=0;entryPerimeter=0;" edge="1" parent="WIyWlLk6GJQsqaUBKTNV-1" source="K_FW4SWD4WvgckGDn0Mu-2" target="K_FW4SWD4WvgckGDn0Mu-1">
          <mxGeometry width="50" height="50" relative="1" as="geometry">
            <mxPoint x="149" y="1770" as="sourcePoint" />
            <mxPoint x="199" y="1720" as="targetPoint" />
            <Array as="points">
              <mxPoint x="199" y="1671" />
            </Array>
          </mxGeometry>
        </mxCell>
        <mxCell id="K_FW4SWD4WvgckGDn0Mu-5" value="&lt;div&gt;0800 - Logon (bit 03 = 910000 e bit 70 = 001)&lt;/div&gt;" style="text;html=1;align=center;verticalAlign=middle;resizable=0;points=[];autosize=1;strokeColor=none;fillColor=none;" vertex="1" parent="WIyWlLk6GJQsqaUBKTNV-1">
          <mxGeometry x="164" y="1600" width="270" height="30" as="geometry" />
        </mxCell>
        <mxCell id="K_FW4SWD4WvgckGDn0Mu-6" value="FEPAS" style="rounded=1;whiteSpace=wrap;html=1;fillColor=none;" vertex="1" parent="WIyWlLk6GJQsqaUBKTNV-1">
          <mxGeometry x="39" y="1950" width="80" height="120" as="geometry" />
        </mxCell>
        <mxCell id="K_FW4SWD4WvgckGDn0Mu-7" value="Autorizador&lt;br&gt;E-ctare" style="rounded=1;whiteSpace=wrap;html=1;fillColor=none;" vertex="1" parent="WIyWlLk6GJQsqaUBKTNV-1">
          <mxGeometry x="479" y="1950" width="80" height="120" as="geometry" />
        </mxCell>
        <mxCell id="K_FW4SWD4WvgckGDn0Mu-8" value="" style="endArrow=classic;html=1;rounded=0;entryX=0;entryY=0.333;entryDx=0;entryDy=0;entryPerimeter=0;" edge="1" parent="WIyWlLk6GJQsqaUBKTNV-1" target="K_FW4SWD4WvgckGDn0Mu-7">
          <mxGeometry width="50" height="50" relative="1" as="geometry">
            <mxPoint x="119" y="1990.04" as="sourcePoint" />
            <mxPoint x="299" y="1990" as="targetPoint" />
          </mxGeometry>
        </mxCell>
        <mxCell id="K_FW4SWD4WvgckGDn0Mu-9" value="" style="endArrow=classic;html=1;rounded=0;exitX=-0.025;exitY=0.675;exitDx=0;exitDy=0;exitPerimeter=0;entryX=1.013;entryY=0.675;entryDx=0;entryDy=0;entryPerimeter=0;" edge="1" parent="WIyWlLk6GJQsqaUBKTNV-1" source="K_FW4SWD4WvgckGDn0Mu-7" target="K_FW4SWD4WvgckGDn0Mu-6">
          <mxGeometry width="50" height="50" relative="1" as="geometry">
            <mxPoint x="149" y="2130" as="sourcePoint" />
            <mxPoint x="199" y="2080" as="targetPoint" />
            <Array as="points">
              <mxPoint x="199" y="2031" />
            </Array>
          </mxGeometry>
        </mxCell>
        <mxCell id="K_FW4SWD4WvgckGDn0Mu-10" value="&lt;div&gt;0800 - Carga de Tabelas (bit 03 = 910000 e bit 70 = 800)&lt;/div&gt;" style="text;html=1;align=center;verticalAlign=middle;resizable=0;points=[];autosize=1;strokeColor=none;fillColor=none;" vertex="1" parent="WIyWlLk6GJQsqaUBKTNV-1">
          <mxGeometry x="134" y="1960" width="330" height="30" as="geometry" />
        </mxCell>
        <mxCell id="K_FW4SWD4WvgckGDn0Mu-11" value="FEPAS" style="rounded=1;whiteSpace=wrap;html=1;fillColor=none;" vertex="1" parent="WIyWlLk6GJQsqaUBKTNV-1">
          <mxGeometry x="51" y="2300" width="80" height="120" as="geometry" />
        </mxCell>
        <mxCell id="K_FW4SWD4WvgckGDn0Mu-12" value="Autorizador&lt;br&gt;E-ctare" style="rounded=1;whiteSpace=wrap;html=1;fillColor=none;" vertex="1" parent="WIyWlLk6GJQsqaUBKTNV-1">
          <mxGeometry x="491" y="2300" width="80" height="120" as="geometry" />
        </mxCell>
        <mxCell id="K_FW4SWD4WvgckGDn0Mu-13" value="" style="endArrow=classic;html=1;rounded=0;exitX=-0.025;exitY=0.675;exitDx=0;exitDy=0;exitPerimeter=0;entryX=1.013;entryY=0.675;entryDx=0;entryDy=0;entryPerimeter=0;" edge="1" parent="WIyWlLk6GJQsqaUBKTNV-1" source="K_FW4SWD4WvgckGDn0Mu-12" target="K_FW4SWD4WvgckGDn0Mu-11">
          <mxGeometry width="50" height="50" relative="1" as="geometry">
            <mxPoint x="151" y="2480" as="sourcePoint" />
            <mxPoint x="201" y="2430" as="targetPoint" />
            <Array as="points">
              <mxPoint x="201" y="2381" />
            </Array>
          </mxGeometry>
        </mxCell>
        <mxCell id="K_FW4SWD4WvgckGDn0Mu-14" value="&lt;div&gt;0800 - Carga de Tabelas (bit 03 = 910000 e bit70 = [8xx ..998])&lt;/div&gt;" style="text;html=1;align=center;verticalAlign=middle;resizable=0;points=[];autosize=1;strokeColor=none;fillColor=none;" vertex="1" parent="WIyWlLk6GJQsqaUBKTNV-1">
          <mxGeometry x="121" y="2310" width="360" height="30" as="geometry" />
        </mxCell>
        <mxCell id="K_FW4SWD4WvgckGDn0Mu-15" value="&lt;div&gt;0810 - Resposta (bit 70 = 001 ou 800)&lt;/div&gt;" style="text;html=1;align=center;verticalAlign=middle;resizable=0;points=[];autosize=1;strokeColor=none;fillColor=none;" vertex="1" parent="WIyWlLk6GJQsqaUBKTNV-1">
          <mxGeometry x="184" y="1640" width="230" height="30" as="geometry" />
        </mxCell>
        <mxCell id="K_FW4SWD4WvgckGDn0Mu-16" value="&lt;div&gt;0810 - Resposta (bit 70 = 001 ou 800)&lt;/div&gt;" style="text;html=1;align=center;verticalAlign=middle;resizable=0;points=[];autosize=1;strokeColor=none;fillColor=none;" vertex="1" parent="WIyWlLk6GJQsqaUBKTNV-1">
          <mxGeometry x="179" y="2000" width="230" height="30" as="geometry" />
        </mxCell>
        <mxCell id="K_FW4SWD4WvgckGDn0Mu-17" value="&lt;div&gt;0810 - Resposta (bit 70 = 001 ou 800)&lt;/div&gt;" style="text;html=1;align=center;verticalAlign=middle;resizable=0;points=[];autosize=1;strokeColor=none;fillColor=none;" vertex="1" parent="WIyWlLk6GJQsqaUBKTNV-1">
          <mxGeometry x="185" y="2350" width="230" height="30" as="geometry" />
        </mxCell>
        <mxCell id="K_FW4SWD4WvgckGDn0Mu-18" value="&lt;div style=&quot;text-align: justify;&quot;&gt;Corresponde à mensagem de Logon, para que o Autorizador verifique se o estabelecimento comercial está habilitado e também cheque sua versão de parâmetros. Na resposta, o bit 70 sinaliza o que fazer:&lt;/div&gt;&lt;div style=&quot;text-align: justify;&quot;&gt;• 800 - as tabelas de parâmetros do estabelecimento estão desatualizadas; o FEPAS executa o Fluxo 2.&lt;/div&gt;&lt;div style=&quot;text-align: justify;&quot;&gt;• 001 - está finalizado o processo de Logon-Carga de Tabelas, pois as tabelas de parâmetros do&lt;/div&gt;&lt;div style=&quot;text-align: justify;&quot;&gt;estabelecimento estão atualizadas&lt;/div&gt;" style="text;html=1;strokeColor=none;fillColor=none;align=center;verticalAlign=middle;whiteSpace=wrap;rounded=0;" vertex="1" parent="WIyWlLk6GJQsqaUBKTNV-1">
          <mxGeometry x="39" y="1730" width="520" height="120" as="geometry" />
        </mxCell>
        <mxCell id="K_FW4SWD4WvgckGDn0Mu-19" value="FLUXO 1" style="text;html=1;strokeColor=none;fillColor=none;align=center;verticalAlign=middle;whiteSpace=wrap;rounded=0;fontSize=21;fontStyle=1" vertex="1" parent="WIyWlLk6GJQsqaUBKTNV-1">
          <mxGeometry x="199" y="1520" width="190" height="30" as="geometry" />
        </mxCell>
        <mxCell id="K_FW4SWD4WvgckGDn0Mu-20" value="" style="endArrow=classic;html=1;rounded=0;entryX=0;entryY=0.333;entryDx=0;entryDy=0;entryPerimeter=0;" edge="1" parent="WIyWlLk6GJQsqaUBKTNV-1">
          <mxGeometry width="50" height="50" relative="1" as="geometry">
            <mxPoint x="131" y="2340.04" as="sourcePoint" />
            <mxPoint x="491" y="2340" as="targetPoint" />
          </mxGeometry>
        </mxCell>
        <mxCell id="K_FW4SWD4WvgckGDn0Mu-21" value="&lt;div style=&quot;text-align: justify;&quot;&gt;&lt;div&gt;&lt;span style=&quot;background-color: initial;&quot;&gt;Corresponde à primeira mensagem de Carga de Tabelas. Na resposta o bit 70 sinaliza o que fazer:&lt;/span&gt;&lt;br&gt;&lt;/div&gt;&lt;div&gt;• 801 - há mais tabelas a baixar, o FEPAS executa o &lt;b&gt;Fluxo 3&lt;/b&gt;.&lt;/div&gt;&lt;div&gt;• 999 - está finalizado o processo de Carga de Tabelas&lt;/div&gt;&lt;/div&gt;" style="text;html=1;strokeColor=none;fillColor=none;align=center;verticalAlign=middle;whiteSpace=wrap;rounded=0;" vertex="1" parent="WIyWlLk6GJQsqaUBKTNV-1">
          <mxGeometry x="39" y="2070" width="520" height="120" as="geometry" />
        </mxCell>
        <mxCell id="K_FW4SWD4WvgckGDn0Mu-22" value="FLUXO 2" style="text;html=1;strokeColor=none;fillColor=none;align=center;verticalAlign=middle;whiteSpace=wrap;rounded=0;fontSize=21;fontStyle=1" vertex="1" parent="WIyWlLk6GJQsqaUBKTNV-1">
          <mxGeometry x="199" y="1880" width="190" height="30" as="geometry" />
        </mxCell>
        <mxCell id="K_FW4SWD4WvgckGDn0Mu-23" value="FLUXO 3" style="text;html=1;strokeColor=none;fillColor=none;align=center;verticalAlign=middle;whiteSpace=wrap;rounded=0;fontSize=21;fontStyle=1" vertex="1" parent="WIyWlLk6GJQsqaUBKTNV-1">
          <mxGeometry x="219" y="2230" width="190" height="30" as="geometry" />
        </mxCell>
        <mxCell id="K_FW4SWD4WvgckGDn0Mu-24" value="&lt;div style=&quot;text-align: justify;&quot;&gt;&lt;div&gt;FEPAS rebate na mensagem de solicitação o bit 70 que recebeu na mensagem de resposta anterior.&amp;nbsp;&lt;/div&gt;&lt;div&gt;Se na mensagem de resposta (0810) o bit 70 está preenchido com:&lt;/div&gt;&lt;div&gt;• 802 ..998 - FEPAS repete o Fluxo 3&lt;/div&gt;&lt;div&gt;• 999 - está finalizado o processo de Carga de Tabelas.&lt;/div&gt;&lt;/div&gt;" style="text;html=1;strokeColor=none;fillColor=none;align=center;verticalAlign=middle;whiteSpace=wrap;rounded=0;" vertex="1" parent="WIyWlLk6GJQsqaUBKTNV-1">
          <mxGeometry x="51" y="2461" width="520" height="120" as="geometry" />
        </mxCell>
        <mxCell id="K_FW4SWD4WvgckGDn0Mu-25" value="&lt;h1 style=&quot;text-align: justify; font-size: 18px;&quot;&gt;&lt;font style=&quot;font-size: 18px;&quot;&gt;Problema de Comunicação durante o fluxo de Logon&lt;br&gt;&lt;/font&gt;&lt;/h1&gt;&lt;div style=&quot;text-align: justify; font-size: 18px;&quot;&gt;&lt;br&gt;&lt;/div&gt;&lt;div style=&quot;font-size: 15px;&quot;&gt;&lt;div style=&quot;text-align: justify;&quot;&gt;Quando ocorre queda na comunicação entre o FEPAS e o Autorizador, ou em caso de indisponibilidade do&amp;nbsp;&lt;span style=&quot;background-color: initial;&quot;&gt;Autorizador, a mensagem de resposta não chega ao FEPAS a tempo. Nesta situação o FEPAS reenviará o Logon.&lt;/span&gt;&lt;/div&gt;&lt;/div&gt;" style="text;html=1;strokeColor=none;fillColor=none;spacing=5;spacingTop=-20;whiteSpace=wrap;overflow=hidden;rounded=0;" vertex="1" parent="WIyWlLk6GJQsqaUBKTNV-1">
          <mxGeometry x="623" y="1550" width="230" height="270" as="geometry" />
        </mxCell>
        <mxCell id="K_FW4SWD4WvgckGDn0Mu-26" value="&lt;h1 style=&quot;text-align: justify;&quot;&gt;&lt;font style=&quot;&quot;&gt;&lt;font style=&quot;font-size: 18px;&quot;&gt;Problema de Comunicação ou Processamento durante o fluxo de Carga de Tabelas&lt;/font&gt;&lt;br&gt;&lt;/font&gt;&lt;/h1&gt;&lt;div style=&quot;text-align: justify; font-size: 18px;&quot;&gt;&lt;br&gt;&lt;/div&gt;&lt;div style=&quot;font-size: 15px;&quot;&gt;&lt;div style=&quot;text-align: justify;&quot;&gt;Quando ocorre queda na comunicação entre o FEPAS e o Autorizador, ou em caso de indisponibilidade do&amp;nbsp;&lt;span style=&quot;background-color: initial;&quot;&gt;Autorizador, a mensagem de resposta não chega ao FEPAS a tempo. Nesta situação o FEPAS reenviará o Logon.&lt;/span&gt;&lt;/div&gt;&lt;/div&gt;" style="text;html=1;strokeColor=none;fillColor=none;spacing=5;spacingTop=-20;whiteSpace=wrap;overflow=hidden;rounded=0;" vertex="1" parent="WIyWlLk6GJQsqaUBKTNV-1">
          <mxGeometry x="618" y="1910" width="240" height="320" as="geometry" />
        </mxCell>
        <mxCell id="jnyRePf9W5kdSKfhLejR-0" value="FEPAS" style="rounded=1;whiteSpace=wrap;html=1;fillColor=none;" vertex="1" parent="WIyWlLk6GJQsqaUBKTNV-1">
          <mxGeometry x="917" y="1620" width="80" height="120" as="geometry" />
        </mxCell>
        <mxCell id="jnyRePf9W5kdSKfhLejR-1" value="Autorizador&lt;br&gt;E-ctare" style="rounded=1;whiteSpace=wrap;html=1;fillColor=none;" vertex="1" parent="WIyWlLk6GJQsqaUBKTNV-1">
          <mxGeometry x="1357" y="1620" width="80" height="120" as="geometry" />
        </mxCell>
        <mxCell id="jnyRePf9W5kdSKfhLejR-2" value="" style="endArrow=classic;html=1;rounded=0;entryX=0;entryY=0.333;entryDx=0;entryDy=0;entryPerimeter=0;" edge="1" parent="WIyWlLk6GJQsqaUBKTNV-1" target="jnyRePf9W5kdSKfhLejR-1">
          <mxGeometry width="50" height="50" relative="1" as="geometry">
            <mxPoint x="997" y="1660.04" as="sourcePoint" />
            <mxPoint x="1177" y="1660" as="targetPoint" />
          </mxGeometry>
        </mxCell>
        <mxCell id="jnyRePf9W5kdSKfhLejR-3" value="" style="endArrow=classic;html=1;rounded=0;exitX=-0.025;exitY=0.675;exitDx=0;exitDy=0;exitPerimeter=0;entryX=1.013;entryY=0.675;entryDx=0;entryDy=0;entryPerimeter=0;" edge="1" parent="WIyWlLk6GJQsqaUBKTNV-1" source="jnyRePf9W5kdSKfhLejR-1" target="jnyRePf9W5kdSKfhLejR-0">
          <mxGeometry width="50" height="50" relative="1" as="geometry">
            <mxPoint x="1027" y="1800" as="sourcePoint" />
            <mxPoint x="1077" y="1750" as="targetPoint" />
            <Array as="points">
              <mxPoint x="1077" y="1701" />
            </Array>
          </mxGeometry>
        </mxCell>
        <mxCell id="jnyRePf9W5kdSKfhLejR-4" value="&lt;div&gt;0800 - Gerenciamento de Rede&lt;/div&gt;" style="text;html=1;align=center;verticalAlign=middle;resizable=0;points=[];autosize=1;strokeColor=none;fillColor=none;" vertex="1" parent="WIyWlLk6GJQsqaUBKTNV-1">
          <mxGeometry x="1082" y="1630" width="190" height="30" as="geometry" />
        </mxCell>
        <mxCell id="jnyRePf9W5kdSKfhLejR-5" value="FEPAS" style="rounded=1;whiteSpace=wrap;html=1;fillColor=none;" vertex="1" parent="WIyWlLk6GJQsqaUBKTNV-1">
          <mxGeometry x="917" y="1840" width="80" height="120" as="geometry" />
        </mxCell>
        <mxCell id="jnyRePf9W5kdSKfhLejR-6" value="Autorizador&lt;br&gt;E-ctare" style="rounded=1;whiteSpace=wrap;html=1;fillColor=none;" vertex="1" parent="WIyWlLk6GJQsqaUBKTNV-1">
          <mxGeometry x="1357" y="1840" width="80" height="120" as="geometry" />
        </mxCell>
        <mxCell id="jnyRePf9W5kdSKfhLejR-7" value="" style="endArrow=classic;html=1;rounded=0;" edge="1" parent="WIyWlLk6GJQsqaUBKTNV-1">
          <mxGeometry width="50" height="50" relative="1" as="geometry">
            <mxPoint x="997" y="1870.04" as="sourcePoint" />
            <mxPoint x="1317" y="1870" as="targetPoint" />
          </mxGeometry>
        </mxCell>
        <mxCell id="jnyRePf9W5kdSKfhLejR-8" value="" style="endArrow=classic;html=1;rounded=0;exitX=-0.025;exitY=0.675;exitDx=0;exitDy=0;exitPerimeter=0;entryX=1.013;entryY=0.675;entryDx=0;entryDy=0;entryPerimeter=0;" edge="1" parent="WIyWlLk6GJQsqaUBKTNV-1">
          <mxGeometry width="50" height="50" relative="1" as="geometry">
            <mxPoint x="1353.96" y="1940" as="sourcePoint" />
            <mxPoint x="997" y="1940" as="targetPoint" />
            <Array as="points">
              <mxPoint x="1075.96" y="1940" />
            </Array>
          </mxGeometry>
        </mxCell>
        <mxCell id="jnyRePf9W5kdSKfhLejR-9" value="0800 - Gerenciamento de Rede" style="text;html=1;align=center;verticalAlign=middle;resizable=0;points=[];autosize=1;strokeColor=none;fillColor=none;" vertex="1" parent="WIyWlLk6GJQsqaUBKTNV-1">
          <mxGeometry x="1082" y="1840" width="190" height="30" as="geometry" />
        </mxCell>
        <mxCell id="jnyRePf9W5kdSKfhLejR-10" value="&lt;div&gt;0810 - Resposta&amp;nbsp;&lt;/div&gt;" style="text;html=1;align=center;verticalAlign=middle;resizable=0;points=[];autosize=1;strokeColor=none;fillColor=none;" vertex="1" parent="WIyWlLk6GJQsqaUBKTNV-1">
          <mxGeometry x="1122" y="1670" width="110" height="30" as="geometry" />
        </mxCell>
        <mxCell id="jnyRePf9W5kdSKfhLejR-11" value="&lt;div&gt;0810 - Resposta&lt;/div&gt;" style="text;html=1;align=center;verticalAlign=middle;resizable=0;points=[];autosize=1;strokeColor=none;fillColor=none;" vertex="1" parent="WIyWlLk6GJQsqaUBKTNV-1">
          <mxGeometry x="1117" y="1910" width="110" height="30" as="geometry" />
        </mxCell>
        <mxCell id="jnyRePf9W5kdSKfhLejR-12" value="Fluxo Normal" style="text;html=1;strokeColor=none;fillColor=none;align=center;verticalAlign=middle;whiteSpace=wrap;rounded=0;fontSize=21;fontStyle=1" vertex="1" parent="WIyWlLk6GJQsqaUBKTNV-1">
          <mxGeometry x="1077" y="1550" width="190" height="30" as="geometry" />
        </mxCell>
        <mxCell id="jnyRePf9W5kdSKfhLejR-13" value="Timeout na Resposta" style="text;html=1;strokeColor=none;fillColor=none;align=center;verticalAlign=middle;whiteSpace=wrap;rounded=0;fontSize=21;fontStyle=1" vertex="1" parent="WIyWlLk6GJQsqaUBKTNV-1">
          <mxGeometry x="1077" y="1770" width="240" height="30" as="geometry" />
        </mxCell>
        <mxCell id="jnyRePf9W5kdSKfhLejR-14" value="" style="endArrow=classic;html=1;rounded=0;entryX=0;entryY=0.333;entryDx=0;entryDy=0;entryPerimeter=0;" edge="1" parent="WIyWlLk6GJQsqaUBKTNV-1">
          <mxGeometry width="50" height="50" relative="1" as="geometry">
            <mxPoint x="997" y="1900.04" as="sourcePoint" />
            <mxPoint x="1357" y="1899.96" as="targetPoint" />
          </mxGeometry>
        </mxCell>
        <mxCell id="jnyRePf9W5kdSKfhLejR-15" value="0800 - Gerenciamento de Rede" style="text;html=1;align=center;verticalAlign=middle;resizable=0;points=[];autosize=1;strokeColor=none;fillColor=none;" vertex="1" parent="WIyWlLk6GJQsqaUBKTNV-1">
          <mxGeometry x="1082" y="1870" width="190" height="30" as="geometry" />
        </mxCell>
        <mxCell id="jnyRePf9W5kdSKfhLejR-16" value="" style="verticalLabelPosition=bottom;verticalAlign=top;html=1;shape=mxgraph.basic.x;fillColor=#e51400;fontColor=#ffffff;strokeColor=#B20000;" vertex="1" parent="WIyWlLk6GJQsqaUBKTNV-1">
          <mxGeometry x="1320" y="1855" width="30" height="30" as="geometry" />
        </mxCell>
        <mxCell id="jnyRePf9W5kdSKfhLejR-17" value="FEPAS" style="rounded=1;whiteSpace=wrap;html=1;fillColor=none;" vertex="1" parent="WIyWlLk6GJQsqaUBKTNV-1">
          <mxGeometry x="917" y="2040" width="80" height="120" as="geometry" />
        </mxCell>
        <mxCell id="jnyRePf9W5kdSKfhLejR-18" value="Autorizador&lt;br&gt;E-ctare" style="rounded=1;whiteSpace=wrap;html=1;fillColor=none;" vertex="1" parent="WIyWlLk6GJQsqaUBKTNV-1">
          <mxGeometry x="1357" y="2039" width="80" height="120" as="geometry" />
        </mxCell>
        <mxCell id="jnyRePf9W5kdSKfhLejR-19" value="" style="endArrow=classic;html=1;rounded=0;entryX=0;entryY=0.25;entryDx=0;entryDy=0;" edge="1" parent="WIyWlLk6GJQsqaUBKTNV-1">
          <mxGeometry width="50" height="50" relative="1" as="geometry">
            <mxPoint x="997" y="2056.04" as="sourcePoint" />
            <mxPoint x="1357" y="2055" as="targetPoint" />
          </mxGeometry>
        </mxCell>
        <mxCell id="jnyRePf9W5kdSKfhLejR-20" value="" style="endArrow=classic;html=1;rounded=0;exitX=-0.025;exitY=0.675;exitDx=0;exitDy=0;exitPerimeter=0;" edge="1" parent="WIyWlLk6GJQsqaUBKTNV-1">
          <mxGeometry width="50" height="50" relative="1" as="geometry">
            <mxPoint x="1353.96" y="2086" as="sourcePoint" />
            <mxPoint x="1037" y="2086" as="targetPoint" />
            <Array as="points">
              <mxPoint x="1075.96" y="2086" />
            </Array>
          </mxGeometry>
        </mxCell>
        <mxCell id="jnyRePf9W5kdSKfhLejR-21" value="0800 - Gerenciamento de Rede" style="text;html=1;align=center;verticalAlign=middle;resizable=0;points=[];autosize=1;strokeColor=none;fillColor=none;" vertex="1" parent="WIyWlLk6GJQsqaUBKTNV-1">
          <mxGeometry x="1082" y="2026" width="190" height="30" as="geometry" />
        </mxCell>
        <mxCell id="jnyRePf9W5kdSKfhLejR-22" value="&lt;div&gt;0810 - Resposta&lt;/div&gt;" style="text;html=1;align=center;verticalAlign=middle;resizable=0;points=[];autosize=1;strokeColor=none;fillColor=none;" vertex="1" parent="WIyWlLk6GJQsqaUBKTNV-1">
          <mxGeometry x="1117" y="2056" width="110" height="30" as="geometry" />
        </mxCell>
        <mxCell id="jnyRePf9W5kdSKfhLejR-23" value="" style="verticalLabelPosition=bottom;verticalAlign=top;html=1;shape=mxgraph.basic.x;fillColor=#e51400;fontColor=#ffffff;strokeColor=#B20000;" vertex="1" parent="WIyWlLk6GJQsqaUBKTNV-1">
          <mxGeometry x="1003" y="2070" width="30" height="30" as="geometry" />
        </mxCell>
        <mxCell id="jnyRePf9W5kdSKfhLejR-24" value="" style="endArrow=classic;html=1;rounded=0;entryX=0;entryY=0.25;entryDx=0;entryDy=0;" edge="1" parent="WIyWlLk6GJQsqaUBKTNV-1">
          <mxGeometry width="50" height="50" relative="1" as="geometry">
            <mxPoint x="997" y="2130.04" as="sourcePoint" />
            <mxPoint x="1357" y="2129" as="targetPoint" />
          </mxGeometry>
        </mxCell>
        <mxCell id="jnyRePf9W5kdSKfhLejR-25" value="" style="endArrow=classic;html=1;rounded=0;exitX=-0.025;exitY=0.675;exitDx=0;exitDy=0;exitPerimeter=0;entryX=1.013;entryY=0.675;entryDx=0;entryDy=0;entryPerimeter=0;" edge="1" parent="WIyWlLk6GJQsqaUBKTNV-1">
          <mxGeometry width="50" height="50" relative="1" as="geometry">
            <mxPoint x="1353.96" y="2152" as="sourcePoint" />
            <mxPoint x="997" y="2152" as="targetPoint" />
            <Array as="points">
              <mxPoint x="1075.96" y="2152" />
            </Array>
          </mxGeometry>
        </mxCell>
        <mxCell id="jnyRePf9W5kdSKfhLejR-26" value="0800 - Gerenciamento de Rede" style="text;html=1;align=center;verticalAlign=middle;resizable=0;points=[];autosize=1;strokeColor=none;fillColor=none;" vertex="1" parent="WIyWlLk6GJQsqaUBKTNV-1">
          <mxGeometry x="1082" y="2100" width="190" height="30" as="geometry" />
        </mxCell>
        <mxCell id="jnyRePf9W5kdSKfhLejR-27" value="&lt;div&gt;0810 - Resposta&lt;/div&gt;" style="text;html=1;align=center;verticalAlign=middle;resizable=0;points=[];autosize=1;strokeColor=none;fillColor=none;" vertex="1" parent="WIyWlLk6GJQsqaUBKTNV-1">
          <mxGeometry x="1117" y="2130" width="110" height="30" as="geometry" />
        </mxCell>
        <mxCell id="ReUIh_fRYPP_b07d6L2p-2" value="" style="endArrow=none;html=1;rounded=0;exitX=0;exitY=0.25;exitDx=0;exitDy=0;entryX=1;entryY=0.25;entryDx=0;entryDy=0;" edge="1" parent="WIyWlLk6GJQsqaUBKTNV-1">
          <mxGeometry width="50" height="50" relative="1" as="geometry">
            <mxPoint x="-2" y="1456.25" as="sourcePoint" />
            <mxPoint x="1483" y="1456.25" as="targetPoint" />
            <Array as="points" />
          </mxGeometry>
        </mxCell>
        <mxCell id="ReUIh_fRYPP_b07d6L2p-3" value="" style="endArrow=none;html=1;rounded=0;" edge="1" parent="WIyWlLk6GJQsqaUBKTNV-1">
          <mxGeometry width="50" height="50" relative="1" as="geometry">
            <mxPoint x="588" y="2640" as="sourcePoint" />
            <mxPoint x="588" y="1458" as="targetPoint" />
            <Array as="points">
              <mxPoint x="588" y="1893" />
            </Array>
          </mxGeometry>
        </mxCell>
        <mxCell id="ReUIh_fRYPP_b07d6L2p-5" value="" style="endArrow=none;html=1;rounded=0;" edge="1" parent="WIyWlLk6GJQsqaUBKTNV-1">
          <mxGeometry width="50" height="50" relative="1" as="geometry">
            <mxPoint x="888" y="2270" as="sourcePoint" />
            <mxPoint x="883" y="1458" as="targetPoint" />
            <Array as="points">
              <mxPoint x="880" y="1893" />
            </Array>
          </mxGeometry>
        </mxCell>
        <mxCell id="aMjmeTp_07_9eYOVUobU-0" value="" style="endArrow=none;html=1;rounded=0;exitX=0;exitY=0;exitDx=0;exitDy=0;" edge="1" parent="WIyWlLk6GJQsqaUBKTNV-1">
          <mxGeometry width="50" height="50" relative="1" as="geometry">
            <mxPoint x="589.0000000000005" y="2636" as="sourcePoint" />
            <mxPoint x="1489" y="2267" as="targetPoint" />
            <Array as="points">
              <mxPoint x="889" y="2267" />
            </Array>
          </mxGeometry>
        </mxCell>
        <mxCell id="FBEMqfg9_CF4NAEi3ukj-5" value="" style="rounded=0;whiteSpace=wrap;html=1;fillColor=none;" vertex="1" parent="WIyWlLk6GJQsqaUBKTNV-1">
          <mxGeometry x="588" y="2639" width="898" height="808" as="geometry" />
        </mxCell>
        <mxCell id="FBEMqfg9_CF4NAEi3ukj-7" value="Mensagem ISO-8583" style="rounded=0;whiteSpace=wrap;html=1;fillColor=none;" vertex="1" parent="WIyWlLk6GJQsqaUBKTNV-1">
          <mxGeometry x="938" y="2408" width="469" height="40" as="geometry" />
        </mxCell>
        <mxCell id="FBEMqfg9_CF4NAEi3ukj-8" value="Código da Transação" style="rounded=0;whiteSpace=wrap;html=1;fillColor=none;" vertex="1" parent="WIyWlLk6GJQsqaUBKTNV-1">
          <mxGeometry x="938" y="2448" width="100" height="100" as="geometry" />
        </mxCell>
        <mxCell id="FBEMqfg9_CF4NAEi3ukj-9" value="&lt;div&gt;Header&amp;nbsp;&lt;/div&gt;&lt;div&gt;(apenas TCP-IP)&lt;/div&gt;" style="rounded=0;whiteSpace=wrap;html=1;fillColor=none;" vertex="1" parent="WIyWlLk6GJQsqaUBKTNV-1">
          <mxGeometry x="828" y="2408" width="110" height="140" as="geometry" />
        </mxCell>
        <mxCell id="FBEMqfg9_CF4NAEi3ukj-10" value="&lt;div style=&quot;&quot;&gt;Primeiro mapa de&amp;nbsp;&lt;span style=&quot;background-color: initial;&quot;&gt;bits&lt;/span&gt;&lt;/div&gt;&lt;div style=&quot;&quot;&gt;&lt;span style=&quot;background-color: initial;&quot;&gt;&lt;br&gt;&lt;/span&gt;&lt;/div&gt;&lt;div style=&quot;&quot;&gt;(sempre presente)&lt;/div&gt;&lt;div style=&quot;&quot;&gt;&lt;br&gt;&lt;/div&gt;&lt;div style=&quot;&quot;&gt;&lt;br&gt;&lt;/div&gt;&lt;div style=&quot;&quot;&gt;1 a 64&lt;/div&gt;" style="rounded=0;whiteSpace=wrap;html=1;align=center;verticalAlign=top;fillColor=none;" vertex="1" parent="WIyWlLk6GJQsqaUBKTNV-1">
          <mxGeometry x="1037" y="2448" width="120" height="100" as="geometry" />
        </mxCell>
        <mxCell id="FBEMqfg9_CF4NAEi3ukj-11" value="&lt;div&gt;Segundo mapa de bits&lt;/div&gt;&lt;div&gt;&lt;br&gt;&lt;/div&gt;&lt;div&gt;(presente se mapeado para a&amp;nbsp;&lt;span style=&quot;background-color: initial;&quot;&gt;transação)&lt;/span&gt;&lt;/div&gt;&lt;div&gt;&lt;br&gt;&lt;/div&gt;&lt;div&gt;65 a 128&lt;/div&gt;" style="rounded=0;whiteSpace=wrap;html=1;verticalAlign=top;fillColor=none;" vertex="1" parent="WIyWlLk6GJQsqaUBKTNV-1">
          <mxGeometry x="1157" y="2448" width="130" height="100" as="geometry" />
        </mxCell>
        <mxCell id="FBEMqfg9_CF4NAEi3ukj-12" value="&lt;div&gt;Dados da&amp;nbsp;&lt;/div&gt;&lt;div&gt;Transação&lt;/div&gt;" style="rounded=0;whiteSpace=wrap;html=1;fillColor=none;" vertex="1" parent="WIyWlLk6GJQsqaUBKTNV-1">
          <mxGeometry x="1287" y="2448" width="120" height="100" as="geometry" />
        </mxCell>
        <mxCell id="FBEMqfg9_CF4NAEi3ukj-13" value="&lt;font style=&quot;font-size: 17px;&quot;&gt;Estrutura da Mensagem&lt;/font&gt;" style="text;html=1;strokeColor=none;fillColor=none;align=center;verticalAlign=middle;whiteSpace=wrap;rounded=0;" vertex="1" parent="WIyWlLk6GJQsqaUBKTNV-1">
          <mxGeometry x="863" y="2375" width="525" height="30" as="geometry" />
        </mxCell>
        <mxCell id="FBEMqfg9_CF4NAEi3ukj-14" value="&lt;div style=&quot;font-size: 15px;&quot;&gt;&lt;ul style=&quot;&quot;&gt;&lt;li style=&quot;text-align: justify;&quot;&gt;&lt;font style=&quot;font-size: 15px;&quot;&gt;&lt;b&gt;Header&lt;/b&gt;: contem o tamanho da Mensagem ISO-8583, em quatro bytes ASCII.&lt;/font&gt;&lt;/li&gt;&lt;ul&gt;&lt;li style=&quot;text-align: justify;&quot;&gt;&lt;font style=&quot;font-size: 15px;&quot;&gt;Tamanho máximo da mensagem : 9999 bytes&lt;/font&gt;&lt;/li&gt;&lt;li style=&quot;text-align: justify;&quot;&gt;&lt;font style=&quot;font-size: 15px;&quot;&gt;Exemplo de tamanho de uma mensagem com 123 bytes&lt;/font&gt;&lt;/li&gt;&lt;ul&gt;&lt;li style=&quot;text-align: justify;&quot;&gt;&lt;font style=&quot;font-size: 15px;&quot;&gt;Header = 0123&lt;/font&gt;&lt;/li&gt;&lt;/ul&gt;&lt;/ul&gt;&lt;/ul&gt;&lt;/div&gt;&lt;div style=&quot;text-align: justify; font-size: 15px;&quot;&gt;&lt;br&gt;&lt;/div&gt;" style="text;html=1;strokeColor=none;fillColor=none;align=left;verticalAlign=top;whiteSpace=wrap;rounded=0;" vertex="1" parent="WIyWlLk6GJQsqaUBKTNV-1">
          <mxGeometry x="588" y="2645" width="580" height="100" as="geometry" />
        </mxCell>
        <mxCell id="FBEMqfg9_CF4NAEi3ukj-15" value="&lt;div style=&quot;font-size: 15px;&quot;&gt;&lt;ul style=&quot;&quot;&gt;&lt;li style=&quot;text-align: justify;&quot;&gt;&lt;b&gt;Código da Transação&lt;/b&gt;: é um campo de quatro posições, indicando o tipo de transação&lt;br&gt;&lt;/li&gt;&lt;ul&gt;&lt;li style=&quot;text-align: justify;&quot;&gt;&amp;nbsp;Exemplo: 0800 = Abertura de Sessão&lt;br&gt;&lt;/li&gt;&lt;/ul&gt;&lt;/ul&gt;&lt;/div&gt;&lt;div style=&quot;text-align: justify; font-size: 15px;&quot;&gt;&lt;br&gt;&lt;/div&gt;" style="text;html=1;strokeColor=none;fillColor=none;align=left;verticalAlign=top;whiteSpace=wrap;rounded=0;" vertex="1" parent="WIyWlLk6GJQsqaUBKTNV-1">
          <mxGeometry x="589" y="2765" width="579" height="100" as="geometry" />
        </mxCell>
        <mxCell id="FBEMqfg9_CF4NAEi3ukj-16" value="&lt;div style=&quot;font-size: 15px;&quot;&gt;&lt;ul style=&quot;&quot;&gt;&lt;li style=&quot;text-align: justify;&quot;&gt;&lt;span style=&quot;background-color: initial;&quot;&gt;&lt;b&gt;Mapas de bits&lt;/b&gt;: o primeiro mapa de bits corresponde aos campos 1 a 64 e o segundo aos campos 65 a 128. Cada bit dentro destes dois mapas codifica a presença ou ausência do dado a que se refere dentro do campo “Dados da Transação”, acima representado.&amp;nbsp;&lt;/span&gt;&lt;/li&gt;&lt;ul&gt;&lt;li style=&quot;text-align: justify;&quot;&gt;Quando determinado bit estiver ligado, significa que o respectivo dado está presente na mensagem.&lt;/li&gt;&lt;li style=&quot;text-align: justify;&quot;&gt;&lt;i&gt;O bit 1 é um caso especial e, quando ligado, sinaliza que o segundo mapa de bits está presente na mensagem.&amp;nbsp;&lt;/i&gt;&lt;/li&gt;&lt;/ul&gt;&lt;/ul&gt;&lt;/div&gt;" style="text;html=1;strokeColor=none;fillColor=none;align=left;verticalAlign=top;whiteSpace=wrap;rounded=0;" vertex="1" parent="WIyWlLk6GJQsqaUBKTNV-1">
          <mxGeometry x="593.5" y="2876" width="579" height="170" as="geometry" />
        </mxCell>
        <mxCell id="FBEMqfg9_CF4NAEi3ukj-17" value="&lt;div style=&quot;font-size: 15px;&quot;&gt;&lt;ul style=&quot;&quot;&gt;&lt;li style=&quot;text-align: justify;&quot;&gt;&lt;font style=&quot;font-size: 15px;&quot;&gt;&lt;b&gt;Dados da Transação&lt;/b&gt;: consistem de uma sequencia de campos, sem delimitadores entre si, que definem os dados necessários nas mensagens de solicitação ou de resposta. Estes campos são enumerados de 1 a 128, cada um devidamente especificado pela norma ISO-8583. Neste documento os campos presentes na mensagem ISO-8583 são também chamados de “bits” (ex, bit 4 corresponde ao campo 4 – valor total da transação).&lt;/font&gt;&lt;/li&gt;&lt;ul&gt;&lt;li style=&quot;text-align: justify;&quot;&gt;Os campos podem ser numéricos, alfanuméricos e binários. Os campos numéricos e alfanuméricos possuem como conteúdo caracteres válidos em ASCII. Já os campos binários devem ser convertidos para ASCII no procedimento de montagem da mensagem.&amp;nbsp;&lt;/li&gt;&lt;li style=&quot;text-align: justify;&quot;&gt;A conversão é feita isolando-se cada semi-byte do número e aplicando a tabela de conversão:&lt;/li&gt;&lt;ul&gt;&lt;li style=&quot;text-align: justify;&quot;&gt;0x00 -→ ‘0’, ..., 0x09 -→ ‘9’, 0x0a -→ ‘A’, ..., 0x0f -→ ‘F’&lt;/li&gt;&lt;/ul&gt;&lt;li style=&quot;text-align: justify;&quot;&gt;&lt;span style=&quot;background-color: initial;&quot;&gt;Os campos podem ser de tamanho fixo ou variável. Os campos de tamanho variável, identificados por LLVar ou LLLVar, devem codificar dentro da mensagem formatada o respectivo tamanho, sendo de 00 a 99 para os definidos como LLVar, ou 00 a 999 para os LLLVar. Este tamanho é codificado antes do dado do campo propriamente dito.&lt;/span&gt;&lt;br&gt;&lt;/li&gt;&lt;/ul&gt;&lt;/ul&gt;&lt;/div&gt;" style="text;html=1;strokeColor=none;fillColor=none;align=left;verticalAlign=top;whiteSpace=wrap;rounded=0;" vertex="1" parent="WIyWlLk6GJQsqaUBKTNV-1">
          <mxGeometry x="593.5" y="3085" width="579" height="360" as="geometry" />
        </mxCell>
      </root>
    </mxGraphModel>
  </diagram>
</mxfile>
